<?xml version="1.0" encoding="utf-8"?>
<!-- Generator: Adobe Illustrator 19.0.0, SVG Export Plug-In . SVG Version: 6.00 Build 0)  -->
<svg version="1.1" id="Layer_1" xmlns="http://www.w3.org/2000/svg" xmlns:xlink="http://www.w3.org/1999/xlink" x="0px" y="0px"
	 viewBox="0 0 960 402" style="enable-background:new 0 0 960 402;" xml:space="preserve">
<style type="text/css">
	.st0{font-family:'JavaneseText';}
	.st1{font-size:44.5829px;}
	.st2{letter-spacing:16;}
	.st3{letter-spacing:15;}
	.st4{letter-spacing:13;}
	.st5{letter-spacing:28;}
	.st6{letter-spacing:11;}
	.st7{font-size:48.5559px;}
	.st8{letter-spacing:12;}
	.st9{letter-spacing:25;}
	.st10{letter-spacing:8;}
</style>
<g id="XMLID_2_">
	<path id="XMLID_1_" d="M194.9,40.1c0.3-1.1,0.3-2.4-0.1-3.4c-0.4-1-1.2-1.8-2.1-2.3c-0.2-0.2-0.5-0.3-0.7-0.4l-0.4-0.2l0,0
		c-0.1,0,0.3,0.1,0.1,0.1l-0.1,0l-0.2-0.1c-0.3-0.1-0.6-0.2-0.9-0.2c-0.2,0-0.4,0.1-0.7,0.1c-0.9,0.1-2.2,0.3-3.3,0.6
		c-2.3,0.7-4.5,1.7-6.6,2.9c-1.1,0.6-2.1,1.2-3.2,1.8c-1,0.7-2.1,1.3-3.1,2c-4,2.8-7.8,6-11.3,9.4c-3.5,3.4-6.7,7.1-9.6,11
		c-1.6,2.1-2.8,4-4.2,6c-1.3,2.1-2.6,4.2-3.8,6.3c-2.5,4.3-4.7,8.7-6.7,13.2l-5.9,13.5c-0.5,1.1-0.9,2.3-1.4,3.4
		c-0.5,1.1-0.9,2.2-1.2,3.4c-0.4,1.1-0.7,2.2-1,3.3c-0.2,1-0.4,2.2-0.4,3l0,0.3l0,0c-0.1-0.4,0-0.1,0-0.1l0,0.1l0,0.2l0.1,1
		c0,0.4,0.1,0.5,0.1,0.7c0.1,0.2,0.1,0.4,0.2,0.6c0.3,0.8,0.8,1.5,1.4,2.1c0.6,0.6,1.5,0.9,2.5,1.2c1,0.2,2.1,0.3,3.2,0.3
		c2.3-0.1,4.7-0.6,7-1.3l0.8-0.2l0.9-0.3c0.3-0.1,0.6-0.2,0.9-0.3l0.8-0.4c1-0.4,2.1-1.1,3.1-1.7c4.2-2.6,8.2-5.7,12-9
		c3.8-3.3,7.5-6.8,10.9-10.5c3.4-3.7,6.6-7.7,9.4-11.8c2.8-4.1,5-8.7,7-13.3c2-4.6,3.5-9.4,4.5-14.3c0.5-2.4,0.8-4.9,0.8-7.3
		c0-1.2-0.1-2.4-0.4-3.4c-0.3-1.1-0.7-1.9-1.3-2.4l0,0l0.8,0.4c0.2,0.1-0.1,0.1-0.3,0.2c-0.1,0.1-0.3,0.2-0.5,0.3
		c-0.3,0.2-0.6,0.5-0.9,0.9c-0.6,0.7-1,1.5-1.5,2.5c-0.4,0.9-0.8,2-1,3l-0.2,0.8l-0.1,0.2c0,0,0,0.1,0,0l0,0.1l-0.1,0.5
		c-0.1,0.6-0.3,1.2-0.4,1.8c-0.9,4.4-1.4,9.2-1.8,13.9c-0.6,9.4-0.3,18.9,0.8,28.3l0.1,0.9c0,0.1,0,0.4,0,0.4l0.1,0.5l0.3,1.8
		c0.2,1.3,0.4,2.4,0.6,3.5c0.4,2.3,0.9,4.7,1.6,6.9c1.3,4.5,3.2,8.9,6.3,12.4c1.5,1.7,3.4,3.1,5.5,4.2c2.1,1.1,4.5,1.5,6.8,1.7
		l1.8,0c0.5,0,1.2-0.1,1.8-0.1c1.3-0.1,2.4-0.3,3.6-0.6c1.2-0.2,2.3-0.6,3.5-0.9c1.1-0.4,2.3-0.8,3.4-1.3c4.5-1.9,8.7-4.5,12.6-7.3
		c3.9-2.9,7.7-6,11-9.5c1.7-1.7,3.3-3.6,4.7-5.3l1.1-1.5l0.9-1.4c0.6-0.9,1.1-2,1.6-3c2-4.2,3.5-8.7,4.7-13.3
		c0.6-2.3,1.1-4.7,1.3-6.7l0-0.6c0,0,0,0,0,0l0,0c0-0.1,0.2,0.9,0.1,0.5l0-0.1l-0.1-0.2c-0.1-0.3,0,0.1,0.1,0.4
		c0,0.1,0.2,0.3,0.2,0.3c0,0,0,0.1,0.1,0.1c0.1,0.1,0.2,0.2,0.2,0.2c0.1,0.1,0.1,0.1,0.3,0.1c0.1,0,0.3-0.1,0.5-0.1
		c0.2-0.2-0.1,0.1-0.2,0.8c-0.1,0.3-0.1,0.7-0.1,1.2l-0.1,1.8l-0.1,7.3c-0.2,9.9-0.3,19.8-0.5,29.6l0,0l-8-2.7
		c1.3-1.1,2.5-2.3,3.8-3.5c1.2-1.2,2.4-2.3,3.6-3.5c2.4-2.4,4.7-4.8,6.9-7.3c2.3-2.5,4.5-4.9,6.7-7.4l3.4-3.7
		c1.1-1.2,2.2-2.5,3.2-3.8c0.5-0.7,1-1.3,1.6-2c0.5-0.7,1-1.4,1.6-2.1c0.6-0.7,1.1-1.4,2-2.1l0.6-0.5l0.3-0.3l0.1-0.1
		c-0.4,0.1,0.5-0.2,0.4-0.2l0,0l0,0l0.1-0.1l0.1-0.1c0.1,0,0,0,0.3-0.1c0.5-0.1,1-0.1,1.5-0.1c0.5,0.1,0.7,0.2,1.1,0.3
		c0.2,0.1,0.3,0.2,0.5,0.3l0.3,0.3c0.2,0.2,0.5,0.4,0.7,0.6l0.4,0.5c0.3,0.4,0.5,0.6,0.6,0.9c0.2,0.3,0.3,0.6,0.4,0.8
		c0.1,0.3,0.3,0.5,0.3,0.8c0.4,1,0.6,1.9,0.9,2.8c0.4,1.8,0.6,3.5,0.8,5.2c0.3,3.4,0.2,6.7,0.3,9.9c0,1.6,0.2,3.2,0.4,4.7
		c0.2,0.7,0.3,1.4,0.5,2c0.2,0.5,0.8,1.1,1.2,0.4l0,0l-6.7,0.1c3.2-1.8,5.8-3.9,8.3-6.2c2.5-2.3,4.7-4.7,7.1-7.1
		c2.3-2.4,4.7-4.8,7.2-7.2c2.6-2.3,5.1-4.6,8.7-6.4c0.9-0.4,1.9-0.8,3-1c0.3-0.1,0.6-0.1,0.9-0.1l0.5-0.1l0.2,0l0.1,0
		c-0.3,0,0.4,0,0.4,0l0,0l0.3,0l0.2,0l0.5,0.1c0.3,0.1,0.6,0.1,1,0.2c0.3,0.1,0.5,0.2,0.8,0.3c1,0.5,1.7,1.2,2.2,1.9
		c0.5,0.7,0.8,1.3,1.1,2c0.5,1.2,0.7,2.3,0.8,3.2c0.5,3.9,0.2,7.2,0,10.6c-0.2,3.3-0.5,6.5-0.6,9.7c0,0.8-0.1,1.6-0.1,2.3l0,1.2
		l0,0.3l0,0.1c0-0.1,0,0.3,0-0.2l0,0l0,0.1l0.1,0.6l0.1,1.2l0.2,0.8c0.1,0.5,0.4,1.2,0.6,1.8c1.1,2.6,2.9,5,5.2,7
		c2.3,2,5,3.5,7.9,4.3c0.7,0.2,1.5,0.3,2.3,0.4c0.4,0.1,0.8,0.1,1.1,0.2l1.2,0c0.8,0,1.6,0.1,2.3,0l2.3-0.3c0.8-0.1,1.5-0.3,2.3-0.5
		c0.8-0.2,1.5-0.4,2.3-0.7l2.2-0.9c0.7-0.3,1.5-0.6,2.2-1c2.8-1.5,5.6-3.3,8.4-5.1c2.7-1.8,5.4-3.8,8-5.8c2.6-2,5.2-4.1,7.6-6.3
		c2.4-2.2,4.8-4.6,6.6-7.2l0.7,0.4c-2,2.8-4.4,5.1-6.8,7.4c-2.4,2.2-5,4.4-7.5,6.5c-2.6,2.1-5.2,4.1-7.9,6c-2.7,2-5.3,3.9-8.2,5.7
		c-0.7,0.5-1.5,0.8-2.2,1.2l-2.3,1.1c-0.8,0.3-1.6,0.6-2.4,0.8c-0.8,0.2-1.6,0.6-2.5,0.7c-3.4,0.8-6.9,0.9-10.4,0.5
		c-3.5-0.5-6.9-1.9-10-3.8c-3-2-5.8-4.6-7.7-7.9c-0.5-0.8-1-1.6-1.3-2.7l-0.6-1.5l-0.3-1.2l-0.1-0.6l0-0.1l0,0l0-0.3l0-0.2l0-0.3
		l-0.1-1.3c-0.1-0.9-0.2-1.7-0.2-2.6c-0.2-3.5-0.2-6.8,0-10.1c0.1-3.3,0.2-6.6,0-9.3c0-0.7-0.1-1.2-0.2-1.6c0-0.2-0.1-0.3,0-0.3
		c0,0,0.2,0.1,0.4,0.3c0.1,0,0.1,0,0.2,0.1c0.1,0,0.2,0.1,0.4,0.1c0.1,0,0.1,0,0.2,0l-0.2,0l-0.3,0l0,0c-0.1,0,0.6,0,0.3,0l0,0
		l-0.1,0l-0.2,0c-0.1,0-0.2,0-0.3,0c-0.5,0-1.1,0.1-1.7,0.3c-2.6,0.7-5.4,2.3-8.1,4c-2.6,1.8-5.2,3.8-7.6,6
		c-2.4,2.2-4.7,4.6-6.6,7.2c-1.9,2.6-3.7,5.5-4.6,8.8l-1.3,4.6l-5.4-4.5c0,0,0,0,0-0.1c-0.8-2-0.7-3-1-4.1c-0.3-1-0.5-1.9-0.6-2.8
		l-0.8-5.2c-0.5-3.4-0.9-6.7-1.2-9.9l-0.3-4.7c-0.1-0.7-0.1-1.5-0.2-2.1l-0.1-0.7c0-0.1,0-0.2,0-0.2c0,0,0,0,0.1,0
		c0.1,0.1,0.1,0.1,0.2,0.1c0,0,0.1,0,0.1,0c0.1,0,0.1,0.1,0.2,0.1c0.2,0.1,0.3,0.1,0.5,0.1c0.3,0,0.6,0,0.9-0.1c0.2-0.1,0.1,0,0,0
		l-0.2,0l-0.2,0l0,0l0,0c-0.1,0,0.8-0.3,0.4-0.1l0,0l-0.2,0.1l-0.4,0.1c-0.6,0.1-1.3,0.6-1.9,0.9c-0.7,0.3-1.4,0.8-2,1.3
		c-0.7,0.5-1.3,1-1.9,1.5c-1.3,1.1-2.4,2.2-3.5,3.5c-1.1,1.2-2.1,2.5-3.2,3.8c-2.1,2.6-4,5.2-5.9,8c-0.9,1.4-1.9,2.7-2.7,4.1
		c-0.9,1.4-1.7,2.8-2.6,4.3c-0.9,1.4-1.6,2.9-2.5,4.4c-0.8,1.5-1.5,3-2.2,4.5l-4.6,10.6l-3.4-13.4l0,0c0.1-9.9,0.4-19.8,0.9-29.7
		l0.5-7.5l0.2-1.9c0.1-0.8,0.2-1.6,0.4-2.5c0.2-0.9,0.5-1.8,1-2.7c0.6-1,1.3-1.9,2.5-2.7c1.1-0.8,2.6-1.2,3.9-1.2
		c1.4,0,2.7,0.3,3.8,1.1c0.6,0.4,1.1,0.8,1.6,1.4l0.4,0.5c0.1,0.1,0.3,0.5,0.4,0.7c0.3,0.5,0.5,1.2,0.5,1.2l0,0.2l0,0.1
		c-0.1-0.4,0.1,0.6,0.1,0.6l0,0.2c0,0.3,0,0.6,0,0.9l-0.1,1.2c-0.5,2.8-1.2,5.3-2,7.7c-1.6,4.9-3.7,9.7-6.4,14.2
		c-0.7,1.1-1.4,2.2-2.2,3.3l-1.3,1.6l-1.2,1.4c-1.9,2-3.7,3.7-5.7,5.3c-3.9,3.3-8,6.1-12.3,8.8c-1.1,0.7-2.1,1.3-3.2,1.9
		c-1.1,0.6-2.2,1.2-3.3,1.8c-2.2,1.2-4.5,2.2-6.9,3.1c-4.7,1.8-9.7,3.2-14.9,2.9c-2.6-0.2-5.2-0.6-7.6-1.6c-2.4-1-4.7-2.4-6.7-4.1
		c-4-3.5-7-7.9-9.4-12.5c-1.2-2.3-2.2-4.7-3.2-7.1c-0.5-1.2-0.9-2.5-1.3-3.7l-0.6-1.8l-0.1-0.4l-0.1-0.5l-0.3-0.9
		c-2.7-10-3.2-20.6-1.9-30.8c0.8-5.2,1.9-10.2,3.9-15.2c0.2-0.7,0.5-1.2,0.8-1.8l0.2-0.4l0.1-0.3l0.1-0.2l0.5-0.9
		c0.7-1.2,1.4-2.4,2.3-3.6c0.9-1.2,2-2.2,3.4-3.1c0.7-0.4,1.4-0.8,2.3-1c0.4-0.1,0.9-0.2,1.3-0.2c0.5,0,0.8,0,1.6,0.1l0.6,0.1
		l0.3,0.3l0,0c1.4,1.3,2,2.9,2.3,4.3c0.3,1.4,0.4,2.8,0.4,4.2c0,2.7-0.5,5.3-1,7.9c-1.1,5.1-2.9,10-4.9,14.8
		c-2.1,4.8-4.4,9.4-7.2,13.8c-2.8,4.4-6.1,8.4-9.5,12.3c-3.4,3.9-7.1,7.6-10.9,11c-3.9,3.5-7.8,6.8-12.2,9.7
		c-1.1,0.7-2.2,1.4-3.5,2.1l-1,0.5c-0.3,0.1-0.6,0.2-0.9,0.4l-0.9,0.4l-0.1,0l-0.2,0.1l-0.2,0.1l-0.5,0.1c-2.5,0.8-5.1,1.5-8,1.7
		c-2.8,0.2-6,0.1-9-1.8c-1.4-1-2.6-2.3-3.5-3.7c-0.2-0.4-0.4-0.8-0.6-1.2c-0.2-0.4-0.4-0.9-0.5-1.1l-0.3-0.9l-0.1-0.2l0-0.1
		c0-0.1,0,0.1-0.1-0.2l0-0.1l-0.1-0.6c-0.6-3.4-0.3-6.1-0.1-8.9c0.2-1.4,0.3-2.7,0.6-4.1c0.2-1.4,0.5-2.7,0.9-4
		c1.3-5.2,3.2-10.2,5.5-15c2.3-4.7,5-9.3,7.8-13.8c1.4-2.2,2.9-4.4,4.5-6.6c1.6-2.1,3.3-4.4,5-6.2c3.5-4.1,7.3-7.8,11.5-11.2
		c4.2-3.3,8.6-6.3,13.3-8.8c4.7-2.5,9.7-4.5,15.2-5.3c2.6-0.4,6.1-0.4,8.4,1.9c1.1,1,2,2.3,2.2,3.8c0.2,1.5-0.1,2.9-0.7,4.1
		L194.9,40.1z"/>
	<g id="XMLID_5_">
		<path id="XMLID_22_" d="M442.1,312.3c-2.7,0-5.2-0.5-7.5-1.4c-2.3-0.9-4.4-2.2-6.1-3.9c-1.7-1.7-3-3.6-4-5.9
			c-1-2.3-1.4-4.8-1.4-7.6c0-2.8,0.5-5.3,1.5-7.6c1-2.3,2.4-4.3,4.1-6c1.7-1.7,3.7-3,6-3.9c2.3-1,4.8-1.4,7.4-1.4
			c2.6,0,5,0.5,7.3,1.4c2.3,0.9,4.3,2.2,6.1,3.9c1.7,1.7,3.1,3.6,4.1,5.9c1,2.3,1.4,4.8,1.4,7.6s-0.5,5.3-1.5,7.6
			c-1,2.3-2.4,4.4-4.1,6.1c-1.7,1.7-3.7,3-6,3.9C447.1,311.8,444.7,312.3,442.1,312.3z M442,108.2c1.9,0,3.9,0.3,5.9,1
			c2,0.7,3.7,1.8,5.3,3.2c1.6,1.5,2.8,3.4,3.9,5.6c1,2.3,1.5,5.1,1.5,8.3c0,2.7-0.2,5.7-0.6,9.1c-0.4,3.4-1,7.5-1.7,12.2
			c-0.7,4.7-1.4,10.2-2.3,16.5c-0.8,6.3-1.7,13.7-2.6,22.1c-0.9,8.5-1.8,18.1-2.6,29c-0.8,10.9-1.6,23.2-2.2,37h-9.1
			c-0.6-13.8-1.4-26.1-2.2-37c-0.8-10.9-1.7-20.5-2.6-29c-0.9-8.4-1.8-15.8-2.6-22.1c-0.8-6.3-1.6-11.8-2.3-16.5
			c-0.7-4.7-1.2-8.8-1.7-12.2c-0.4-3.4-0.6-6.4-0.6-9.1c0-3.2,0.5-6,1.5-8.3c1-2.3,2.3-4.2,3.9-5.6c1.6-1.5,3.3-2.5,5.3-3.2
			C438.1,108.6,440,108.2,442,108.2z"/>
	</g>
	<text id="XMLID_21_" transform="matrix(1 0 0 1 569.419 212.7361)"><tspan x="0" y="0" class="st0 st1 st2">D</tspan><tspan x="49.1" y="0" class="st0 st1 st3">r</tspan><tspan x="81.4" y="0" class="st0 st1 st4">ie</tspan><tspan x="142.9" y="0" class="st0 st1">d</tspan><tspan x="167.6" y="0" class="st0 st1 st5"> </tspan><tspan x="207.1" y="0" class="st0 st1 st6">F</tspan><tspan x="246.4" y="0" class="st0 st1 st3">r</tspan><tspan x="278.7" y="0" class="st0 st1 st2">u</tspan><tspan x="319.5" y="0" class="st0 st1 st4">i</tspan><tspan x="345.8" y="0" class="st0 st1">t</tspan></text>
	<text id="XMLID_27_" transform="matrix(1 0 0 1 567.1436 269.199)"><tspan x="0" y="0" class="st0 st7 st6">C</tspan><tspan x="44.5" y="0" class="st0 st7 st3">h</tspan><tspan x="86.7" y="0" class="st0 st7 st4">i</tspan><tspan x="114.1" y="0" class="st0 st7 st8">l</tspan><tspan x="140.4" y="0" class="st0 st7">i</tspan><tspan x="154.3" y="0" class="st0 st7 st9"> </tspan><tspan x="192.1" y="0" class="st0 st7 st10">P</tspan><tspan x="230.9" y="0" class="st0 st7 st6">a</tspan><tspan x="265.9" y="0" class="st0 st7 st4">s</tspan><tspan x="299.4" y="0" class="st0 st7 st8">t</tspan><tspan x="329" y="0" class="st0 st7">e</tspan></text>
	<g id="XMLID_17_">
		<path id="XMLID_18_" d="M362.4,168.6c9.8,0,18,0.9,24.7,2.7c6.7,1.8,12,4.2,16.1,7.4c4.1,3.2,7,6.9,8.8,11.3
			c1.8,4.4,2.7,9.2,2.7,14.5c0,5-0.8,9.8-2.5,14.5c-1.7,4.7-4.5,8.9-8.6,12.6c-4.1,3.7-9.6,6.7-16.4,8.9c-6.9,2.2-15.5,3.4-26,3.4
			h-12.2v46.2h18.6v7.1h-53.5v-7.1h17.7V175.7h-17.7v-7.1H362.4z M349.1,236.8h10.9c6.8,0,12.5-0.5,17.1-1.5c4.6-1,8.3-2.8,11.1-5.3
			c2.8-2.5,4.8-5.8,6-9.9c1.2-4.1,1.8-9.2,1.8-15.3c0-5.1-0.5-9.4-1.4-13.1c-0.9-3.7-2.6-6.7-5.2-9.1s-6.1-4.1-10.6-5.3
			c-4.5-1.1-10.3-1.7-17.5-1.7h-12.3V236.8z"/>
	</g>
	<g id="XMLID_13_">
		<path id="XMLID_14_" d="M214.7,290.1v7h-42.6v-7h16.6l45.5-121.5h6.9l42.7,121.5h17.3v7h-53.8v-7h18.2l-13.1-37.4h-41.3
			l-13.9,37.4H214.7z M232.3,196.3l-18.5,49.4H250l-17.3-49.4H232.3z"/>
	</g>
	<g id="XMLID_8_">
		<path id="XMLID_9_" d="M38.7,371.5v-8.7l114.8-184.6h-48c-6.1,0-11.5,0.2-16.2,0.7c-4.7,0.5-8.8,1.4-12.3,2.7
			c-3.5,1.3-6.5,3.1-9.1,5.5c-2.5,2.3-4.7,5.4-6.5,9c-1.8,3.7-3.3,8.1-4.6,13.2c-1.3,5.2-2.4,11.3-3.3,18.3h-9.9l4.1-60.7h140.1v8.7
			L71.1,360.3h49.1c7.3,0,13.8-0.3,19.3-0.8c5.5-0.6,10.4-1.6,14.5-3.1c4.1-1.5,7.7-3.6,10.6-6.3c3-2.7,5.5-6.2,7.7-10.6
			c2.2-4.3,4-9.6,5.5-15.8s2.9-13.5,4.2-22h9.9l-2.8,69.8H38.7z"/>
	</g>
	<rect id="XMLID_6_" x="506.6" y="86" width="8.5" height="233.5"/>
</g>
</svg>
