<?xml version="1.0" encoding="utf-8"?>
<!-- Generator: Adobe Illustrator 19.0.0, SVG Export Plug-In . SVG Version: 6.00 Build 0)  -->
<svg version="1.1" xmlns="http://www.w3.org/2000/svg" xmlns:xlink="http://www.w3.org/1999/xlink" x="0px" y="0px"
	 viewBox="0 0 487.5 423" style="enable-background:new 0 0 487.5 423;" xml:space="preserve">
<style type="text/css">
	.st0{display:none;}
	.st1{display:inline;}
</style>
<g id="Layer_1" class="st0">
	<g id="XMLID_2_" class="st1">
		<path id="XMLID_1_" d="M-18.3-702.4c0.3-1.1,0.3-2.4-0.1-3.4c-0.4-1-1.2-1.8-2.1-2.3c-0.2-0.2-0.5-0.3-0.7-0.4l-0.4-0.2l0,0
			c-0.1,0,0.3,0.1,0.1,0.1l-0.1,0l-0.2-0.1c-0.3-0.1-0.6-0.2-0.9-0.2c-0.2,0-0.4,0.1-0.7,0.1c-0.9,0.1-2.2,0.3-3.3,0.6
			c-2.3,0.7-4.5,1.7-6.6,2.9c-1.1,0.6-2.1,1.2-3.2,1.8c-1,0.7-2.1,1.3-3.1,2c-4,2.8-7.8,6-11.3,9.4c-3.5,3.4-6.7,7.1-9.6,11
			c-1.6,2.1-2.8,4-4.2,6c-1.3,2.1-2.6,4.2-3.8,6.3c-2.5,4.3-4.7,8.7-6.7,13.2l-5.9,13.5c-0.5,1.1-0.9,2.3-1.4,3.4
			c-0.5,1.1-0.9,2.2-1.2,3.4c-0.4,1.1-0.7,2.2-1,3.3c-0.2,1-0.4,2.2-0.4,3l0,0.3l0,0c-0.1-0.4,0-0.1,0-0.1l0,0.1l0,0.2l0.1,1
			c0,0.4,0.1,0.5,0.1,0.7c0.1,0.2,0.1,0.4,0.2,0.6c0.3,0.8,0.8,1.5,1.4,2.1c0.6,0.6,1.5,0.9,2.5,1.2c1,0.2,2.1,0.3,3.2,0.3
			c2.3-0.1,4.7-0.6,7-1.3l0.8-0.2l0.9-0.3c0.3-0.1,0.6-0.2,0.9-0.3l0.8-0.4c1-0.4,2.1-1.1,3.1-1.7c4.2-2.6,8.2-5.7,12-9
			c3.8-3.3,7.5-6.8,10.9-10.5c3.4-3.7,6.6-7.7,9.4-11.8c2.8-4.1,5-8.7,7-13.3c2-4.6,3.5-9.4,4.5-14.3c0.5-2.4,0.8-4.9,0.8-7.3
			c0-1.2-0.1-2.4-0.4-3.4c-0.3-1.1-0.7-1.9-1.3-2.4l0,0l0.8,0.4c0.2,0.1-0.1,0.1-0.3,0.2c-0.1,0.1-0.3,0.2-0.5,0.3
			c-0.3,0.2-0.6,0.5-0.9,0.9c-0.6,0.7-1,1.5-1.5,2.5c-0.4,0.9-0.8,2-1,3l-0.2,0.8l-0.1,0.2c0,0,0,0.1,0,0l0,0.1L-25-690
			c-0.1,0.6-0.3,1.2-0.4,1.8c-0.9,4.4-1.4,9.2-1.8,13.9c-0.6,9.4-0.3,18.9,0.8,28.3l0.1,0.9c0,0.1,0,0.4,0,0.4l0.1,0.5l0.3,1.8
			c0.2,1.3,0.4,2.4,0.6,3.5c0.4,2.3,0.9,4.7,1.6,6.9c1.3,4.5,3.2,8.9,6.3,12.4c1.5,1.7,3.4,3.1,5.5,4.2c2.1,1.1,4.5,1.5,6.8,1.7
			l1.8,0c0.5,0,1.2-0.1,1.8-0.1c1.3-0.1,2.4-0.3,3.6-0.6c1.2-0.2,2.3-0.6,3.5-0.9c1.1-0.4,2.3-0.8,3.4-1.3c4.5-1.9,8.7-4.5,12.6-7.3
			c3.9-2.9,7.7-6,11-9.5c1.7-1.7,3.3-3.6,4.7-5.3l1.1-1.5l0.9-1.4c0.6-0.9,1.1-2,1.6-3c2-4.2,3.5-8.7,4.7-13.3
			c0.6-2.3,1.1-4.7,1.3-6.7l0-0.6c0,0,0,0,0,0l0,0c0-0.1,0.2,0.9,0.1,0.5l0-0.1l-0.1-0.2c-0.1-0.3,0,0.1,0.1,0.4
			c0,0.1,0.2,0.3,0.2,0.3c0,0,0,0.1,0.1,0.1c0.1,0.1,0.2,0.2,0.2,0.2c0.1,0.1,0.1,0.1,0.3,0.1c0.1,0,0.3-0.1,0.5-0.1
			c0.2-0.2-0.1,0.1-0.2,0.8c-0.1,0.3-0.1,0.7-0.1,1.2l-0.1,1.8l-0.1,7.3c-0.2,9.9-0.3,19.8-0.5,29.6l0,0l-8-2.7
			c1.3-1.1,2.5-2.3,3.8-3.5c1.2-1.2,2.4-2.3,3.6-3.5c2.4-2.4,4.7-4.8,6.9-7.3c2.3-2.5,4.5-4.9,6.7-7.4l3.4-3.7
			c1.1-1.2,2.2-2.5,3.2-3.8c0.5-0.7,1-1.3,1.6-2c0.5-0.7,1-1.4,1.6-2.1c0.6-0.7,1.1-1.4,2-2.1l0.6-0.5l0.3-0.3l0.1-0.1
			c-0.4,0.1,0.5-0.2,0.4-0.2l0,0l0,0l0.1-0.1l0.1-0.1c0.1,0,0,0,0.3-0.1c0.5-0.1,1-0.1,1.5-0.1c0.5,0.1,0.7,0.2,1.1,0.3
			c0.2,0.1,0.3,0.2,0.5,0.3l0.3,0.3c0.2,0.2,0.4,0.4,0.7,0.6l0.4,0.5c0.3,0.4,0.5,0.6,0.6,0.9c0.2,0.3,0.3,0.6,0.4,0.8
			c0.1,0.3,0.3,0.5,0.3,0.8c0.4,1,0.6,1.9,0.9,2.8c0.4,1.8,0.6,3.5,0.8,5.2c0.3,3.4,0.2,6.7,0.3,9.9c0,1.6,0.2,3.2,0.4,4.7
			c0.2,0.7,0.3,1.4,0.5,2c0.2,0.5,0.8,1.1,1.2,0.4l0,0l-6.7,0.1c3.2-1.8,5.8-3.9,8.3-6.2c2.5-2.3,4.7-4.7,7.1-7.1
			c2.3-2.4,4.7-4.8,7.2-7.2c2.6-2.3,5.1-4.6,8.7-6.4c0.9-0.4,1.9-0.8,3-1c0.3-0.1,0.6-0.1,0.9-0.1l0.5-0.1l0.2,0l0.1,0
			c-0.3,0,0.4,0,0.4,0l0,0l0.3,0l0.2,0l0.5,0.1c0.3,0.1,0.6,0.1,1,0.2c0.3,0.1,0.5,0.2,0.8,0.3c1,0.5,1.7,1.2,2.2,1.9
			c0.5,0.7,0.8,1.3,1.1,2c0.5,1.2,0.7,2.3,0.8,3.2c0.5,3.9,0.2,7.2,0,10.6c-0.2,3.3-0.5,6.5-0.6,9.7c0,0.8-0.1,1.6-0.1,2.3l0,1.2
			l0,0.3l0,0.1c0-0.1,0,0.3,0-0.2l0,0l0,0.1l0.1,0.6l0.1,1.2l0.2,0.8c0.1,0.5,0.4,1.2,0.6,1.8c1.1,2.6,2.9,5,5.2,7
			c2.3,2,5,3.5,7.9,4.3c0.7,0.2,1.5,0.3,2.3,0.4c0.4,0.1,0.8,0.1,1.1,0.2l1.2,0c0.8,0,1.6,0.1,2.3,0l2.3-0.3
			c0.8-0.1,1.5-0.3,2.3-0.5c0.8-0.2,1.5-0.4,2.3-0.7l2.2-0.9c0.7-0.3,1.5-0.6,2.2-1c2.8-1.5,5.6-3.3,8.4-5.1c2.7-1.8,5.4-3.8,8-5.8
			c2.6-2,5.2-4.1,7.6-6.3c2.4-2.2,4.8-4.6,6.6-7.2l0.7,0.4c-2,2.8-4.4,5.1-6.8,7.4c-2.4,2.2-5,4.4-7.5,6.5c-2.6,2.1-5.2,4.1-7.9,6
			c-2.7,2-5.3,3.9-8.2,5.7c-0.7,0.5-1.5,0.8-2.2,1.2l-2.3,1.1c-0.8,0.3-1.6,0.6-2.4,0.8c-0.8,0.2-1.6,0.6-2.5,0.7
			c-3.4,0.8-6.9,0.9-10.4,0.5c-3.5-0.5-6.9-1.9-10-3.8c-3-2-5.8-4.6-7.7-7.9c-0.5-0.8-1-1.6-1.3-2.7l-0.6-1.5l-0.3-1.2l-0.1-0.6
			l0-0.1l0,0l0-0.3l0-0.2l0-0.3l-0.1-1.3c-0.1-0.9-0.2-1.7-0.2-2.6c-0.2-3.5-0.2-6.8,0-10.1c0.1-3.3,0.2-6.6,0-9.3
			c0-0.7-0.1-1.2-0.2-1.6c0-0.2-0.1-0.3,0-0.3c0,0,0.2,0.1,0.4,0.3c0.1,0,0.1,0,0.2,0.1c0.1,0,0.2,0.1,0.4,0.1c0.1,0,0.1,0,0.2,0
			l-0.2,0l-0.3,0l0,0c-0.1,0,0.6,0,0.3,0l0,0l-0.1,0l-0.2,0c-0.1,0-0.2,0-0.3,0c-0.5,0-1.1,0.1-1.7,0.3c-2.6,0.7-5.4,2.3-8.1,4
			c-2.6,1.8-5.2,3.8-7.6,6c-2.4,2.2-4.7,4.6-6.6,7.2c-1.9,2.6-3.7,5.5-4.6,8.8l-1.3,4.6l-5.4-4.5c0,0,0,0,0-0.1c-0.8-2-0.7-3-1-4.1
			c-0.3-1-0.5-1.9-0.6-2.8l-0.8-5.2c-0.5-3.4-0.9-6.7-1.2-9.9l-0.3-4.7c-0.1-0.7-0.1-1.5-0.2-2.1l-0.1-0.7c0-0.1,0-0.2,0-0.2
			c0,0,0,0,0.1,0c0.1,0.1,0.1,0.1,0.2,0.1c0,0,0.1,0,0.1,0c0.1,0,0.1,0.1,0.2,0.1c0.2,0.1,0.3,0.1,0.5,0.1c0.3,0,0.6,0,0.9-0.1
			c0.2-0.1,0.1,0,0,0l-0.2,0l-0.2,0l0,0l0,0c-0.1,0,0.8-0.3,0.4-0.1l0,0l-0.2,0.1l-0.4,0.1c-0.6,0.1-1.3,0.6-1.9,0.9
			c-0.7,0.3-1.4,0.8-2,1.3c-0.7,0.5-1.3,1-1.9,1.5c-1.3,1.1-2.4,2.2-3.5,3.5c-1.1,1.2-2.1,2.5-3.2,3.8c-2.1,2.6-4,5.2-5.9,8
			c-0.9,1.4-1.9,2.7-2.7,4.1c-0.9,1.4-1.7,2.8-2.6,4.3c-0.9,1.4-1.6,2.9-2.5,4.4c-0.8,1.5-1.5,3-2.2,4.5l-4.6,10.6l-3.4-13.4l0,0
			c0.1-9.9,0.4-19.8,0.9-29.7l0.5-7.5l0.2-1.9c0.1-0.8,0.2-1.6,0.4-2.5c0.2-0.9,0.5-1.8,1-2.7c0.6-1,1.3-1.9,2.5-2.7
			c1.1-0.8,2.6-1.2,3.9-1.2c1.4,0,2.7,0.3,3.8,1.1c0.6,0.4,1.1,0.8,1.6,1.4l0.4,0.5c0.1,0.1,0.3,0.5,0.4,0.7
			c0.3,0.5,0.5,1.3,0.5,1.2l0,0.2l0,0.1c-0.1-0.4,0.1,0.6,0.1,0.6l0,0.2c0,0.3,0,0.6,0,0.9l-0.1,1.2c-0.5,2.8-1.2,5.3-2,7.7
			c-1.6,4.9-3.7,9.7-6.4,14.2c-0.7,1.1-1.4,2.2-2.2,3.3l-1.3,1.6l-1.2,1.4c-1.9,2-3.7,3.7-5.7,5.3c-3.9,3.3-8,6.1-12.3,8.8
			c-1.1,0.7-2.1,1.3-3.2,1.9c-1.1,0.6-2.2,1.2-3.3,1.8c-2.2,1.2-4.5,2.2-6.9,3.1c-4.7,1.8-9.7,3.2-14.9,2.9
			c-2.6-0.2-5.2-0.6-7.6-1.6c-2.4-1-4.7-2.4-6.7-4.1c-4-3.5-7-7.9-9.4-12.5c-1.2-2.3-2.2-4.7-3.2-7.1c-0.5-1.2-0.9-2.5-1.3-3.7
			l-0.6-1.8l-0.1-0.4l-0.1-0.5l-0.3-0.9c-2.7-10-3.2-20.6-1.9-30.8c0.8-5.2,1.9-10.2,3.9-15.2c0.2-0.7,0.5-1.2,0.8-1.8l0.2-0.4
			l0.1-0.3l0.1-0.2l0.5-0.9c0.7-1.2,1.4-2.4,2.3-3.6c0.9-1.2,2-2.2,3.4-3.1c0.7-0.4,1.4-0.8,2.3-1c0.4-0.1,0.9-0.2,1.3-0.2
			c0.5,0,0.8,0,1.6,0.1l0.6,0.1l0.3,0.3l0,0c1.4,1.3,2,2.9,2.3,4.3c0.3,1.4,0.4,2.8,0.4,4.2c0,2.7-0.5,5.3-1,7.9
			c-1.1,5.1-2.9,10-4.9,14.8c-2.1,4.8-4.4,9.4-7.2,13.8c-2.8,4.4-6.1,8.4-9.5,12.3c-3.4,3.9-7.1,7.6-10.9,11
			c-3.9,3.5-7.8,6.8-12.2,9.7c-1.1,0.7-2.2,1.4-3.5,2.1l-1,0.5c-0.3,0.1-0.6,0.2-0.9,0.4l-0.9,0.4l-0.1,0l-0.2,0.1L-69-620l-0.5,0.1
			c-2.5,0.8-5.1,1.5-8,1.7c-2.8,0.2-6,0.1-9-1.8c-1.4-1-2.6-2.3-3.5-3.7c-0.2-0.4-0.4-0.8-0.6-1.2c-0.2-0.4-0.4-0.9-0.5-1.1
			l-0.3-0.9l-0.1-0.2l0-0.1c0-0.1,0,0.1-0.1-0.2l0-0.1l-0.1-0.6c-0.6-3.4-0.3-6.1-0.1-8.9c0.2-1.4,0.3-2.7,0.6-4.1
			c0.2-1.4,0.5-2.7,0.9-4c1.3-5.2,3.2-10.2,5.5-15c2.3-4.7,5-9.3,7.8-13.8c1.4-2.2,2.9-4.4,4.5-6.6c1.6-2.1,3.3-4.4,5-6.2
			c3.5-4.1,7.3-7.8,11.5-11.2c4.2-3.3,8.6-6.3,13.3-8.8c4.7-2.5,9.7-4.5,15.2-5.3c2.6-0.4,6.1-0.4,8.4,1.9c1.1,1,2,2.3,2.2,3.8
			c0.2,1.5-0.1,2.9-0.7,4.1L-18.3-702.4z"/>
		<g id="XMLID_5_">
			<path id="XMLID_22_" d="M229-430.2c-2.7,0-5.2-0.5-7.5-1.4c-2.3-0.9-4.4-2.2-6.1-3.9c-1.7-1.7-3-3.6-4-5.9
				c-1-2.3-1.4-4.8-1.4-7.6c0-2.8,0.5-5.3,1.5-7.6c1-2.3,2.4-4.3,4.1-6c1.7-1.7,3.7-3,6-3.9c2.3-1,4.8-1.4,7.4-1.4
				c2.6,0,5,0.5,7.3,1.4c2.3,0.9,4.3,2.2,6.1,3.9c1.7,1.7,3.1,3.6,4.1,5.9c1,2.3,1.4,4.8,1.4,7.6c0,2.8-0.5,5.3-1.5,7.6
				c-1,2.3-2.4,4.4-4.1,6.1c-1.7,1.7-3.7,3-6,3.9C234-430.6,231.6-430.2,229-430.2z M228.9-634.2c1.9,0,3.9,0.3,5.9,1
				s3.7,1.8,5.3,3.2c1.6,1.5,2.8,3.4,3.9,5.6c1,2.3,1.5,5.1,1.5,8.3c0,2.7-0.2,5.7-0.6,9.1c-0.4,3.4-1,7.5-1.7,12.2
				c-0.7,4.7-1.4,10.2-2.3,16.5c-0.8,6.3-1.7,13.7-2.6,22.1c-0.9,8.5-1.8,18.1-2.6,29c-0.8,10.9-1.6,23.2-2.2,37h-9.1
				c-0.6-13.8-1.4-26.1-2.2-37c-0.8-10.9-1.7-20.5-2.6-29c-0.9-8.4-1.8-15.8-2.6-22.1c-0.8-6.3-1.6-11.8-2.3-16.5
				c-0.7-4.7-1.2-8.8-1.7-12.2c-0.4-3.4-0.6-6.4-0.6-9.1c0-3.2,0.5-6,1.5-8.3c1-2.3,2.3-4.2,3.9-5.6c1.6-1.5,3.3-2.5,5.3-3.2
				C225-633.9,226.9-634.2,228.9-634.2z"/>
		</g>
		<text id="XMLID_21_" transform="matrix(1 0 0 1 356.3152 -529.7267)"><tspan x="0" y="0" style="font-family:'JavaneseText'; font-size:44.5829px; letter-spacing:16;">D</tspan><tspan x="49.1" y="0" style="font-family:'JavaneseText'; font-size:44.5829px; letter-spacing:15;">r</tspan><tspan x="81.4" y="0" style="font-family:'JavaneseText'; font-size:44.5829px; letter-spacing:13;">ie</tspan><tspan x="142.9" y="0" style="font-family:'JavaneseText'; font-size:44.5829px;">d</tspan><tspan x="167.6" y="0" style="font-family:'JavaneseText'; font-size:44.5829px; letter-spacing:28;"> </tspan><tspan x="207.1" y="0" style="font-family:'JavaneseText'; font-size:44.5829px; letter-spacing:11;">F</tspan><tspan x="246.4" y="0" style="font-family:'JavaneseText'; font-size:44.5829px; letter-spacing:15;">r</tspan><tspan x="278.7" y="0" style="font-family:'JavaneseText'; font-size:44.5829px; letter-spacing:16;">u</tspan><tspan x="319.5" y="0" style="font-family:'JavaneseText'; font-size:44.5829px; letter-spacing:13;">i</tspan><tspan x="345.8" y="0" style="font-family:'JavaneseText'; font-size:44.5829px;">t</tspan></text>
		<text id="XMLID_27_" transform="matrix(1 0 0 1 354.0398 -473.2639)"><tspan x="0" y="0" style="font-family:'JavaneseText'; font-size:48.5559px; letter-spacing:11;">C</tspan><tspan x="44.5" y="0" style="font-family:'JavaneseText'; font-size:48.5559px; letter-spacing:15;">h</tspan><tspan x="86.7" y="0" style="font-family:'JavaneseText'; font-size:48.5559px; letter-spacing:13;">i</tspan><tspan x="114.1" y="0" style="font-family:'JavaneseText'; font-size:48.5559px; letter-spacing:12;">l</tspan><tspan x="140.4" y="0" style="font-family:'JavaneseText'; font-size:48.5559px;">i</tspan><tspan x="154.3" y="0" style="font-family:'JavaneseText'; font-size:48.5559px; letter-spacing:25;"> </tspan><tspan x="192.1" y="0" style="font-family:'JavaneseText'; font-size:48.5559px; letter-spacing:8;">P</tspan><tspan x="230.9" y="0" style="font-family:'JavaneseText'; font-size:48.5559px; letter-spacing:11;">a</tspan><tspan x="265.9" y="0" style="font-family:'JavaneseText'; font-size:48.5559px; letter-spacing:13;">s</tspan><tspan x="299.4" y="0" style="font-family:'JavaneseText'; font-size:48.5559px; letter-spacing:12;">t</tspan><tspan x="329" y="0" style="font-family:'JavaneseText'; font-size:48.5559px;">e</tspan></text>
		<g id="XMLID_17_">
			<path id="XMLID_18_" d="M149.3-573.8c9.8,0,18,0.9,24.7,2.7s12,4.2,16.1,7.4c4.1,3.2,7,6.9,8.8,11.3c1.8,4.4,2.7,9.2,2.7,14.5
				c0,5-0.8,9.8-2.5,14.5c-1.7,4.7-4.5,8.9-8.6,12.6c-4.1,3.7-9.6,6.7-16.4,8.9c-6.9,2.2-15.5,3.4-26,3.4H136v46.2h18.6v7.1H101
				v-7.1h17.7v-114.3H101v-7.1H149.3z M136-505.6h10.9c6.8,0,12.5-0.5,17.1-1.5c4.6-1,8.3-2.8,11.1-5.3s4.8-5.8,6-9.9
				c1.2-4.1,1.8-9.2,1.8-15.3c0-5.1-0.5-9.4-1.4-13.1c-0.9-3.7-2.6-6.7-5.2-9.1s-6.1-4.1-10.6-5.3c-4.5-1.1-10.3-1.7-17.5-1.7H136
				V-505.6z"/>
		</g>
		<g id="XMLID_13_">
			<path id="XMLID_14_" d="M1.6-452.3v7H-41v-7h16.6l45.5-121.5h6.9l42.7,121.5h17.3v7H34.3v-7h18.2l-13.1-37.4H-2l-13.9,37.4H1.6z
				 M19.2-546.2L0.8-496.8h36.1l-17.3-49.4H19.2z"/>
		</g>
		<g id="XMLID_8_">
			<path id="XMLID_9_" d="M-174.4-370.9v-8.7l114.8-184.6h-48c-6.1,0-11.5,0.2-16.2,0.7c-4.7,0.5-8.8,1.4-12.3,2.7
				c-3.5,1.3-6.5,3.1-9.1,5.5c-2.5,2.3-4.7,5.4-6.5,9c-1.8,3.7-3.3,8.1-4.6,13.2c-1.3,5.2-2.4,11.3-3.3,18.3h-9.9l4.1-60.7h140.1
				v8.7L-142-382.2h49.1c7.3,0,13.8-0.3,19.3-0.8c5.5-0.6,10.4-1.6,14.5-3.1c4.1-1.5,7.7-3.6,10.6-6.3c3-2.7,5.5-6.2,7.7-10.6
				c2.2-4.3,4-9.6,5.5-15.8s2.9-13.5,4.2-22h9.9l-2.8,69.8H-174.4z"/>
		</g>
		<rect id="XMLID_6_" x="293.5" y="-656.5" width="8.5" height="233.5"/>
	</g>
</g>
<g id="Layer_2">
	<g id="XMLID_49_">
		<path id="XMLID_70_" d="M26.6,228.2h34.2v1.2c-2.6,0.2-4.5,0.6-5.6,1.2c-1.1,0.5-1.9,1.3-2.6,2.4c-0.7,1.1-1,2.3-1,3.6
			c0,0.9,0.1,1.7,0.3,2.4c0.2,0.7,0.7,2.2,1.6,4.5l15.4,41.8l14.9-36.6c2.1-5.2,3.1-8.9,3.1-11.3c0-1.3-0.2-2.5-0.6-3.7
			c-0.4-1.1-1-2-1.7-2.6c-0.7-0.6-1.5-1-2.3-1.2c-0.8-0.2-1.9-0.4-3.2-0.4v-1.2h23.1v1.2c-1.9,0.2-3.6,0.6-5,1.4s-2.7,1.9-4,3.5
			c-0.9,1.1-1.8,2.6-2.7,4.5c-1,1.9-2.3,4.9-3.9,8.9l-21.3,51.3h-2.2l-20.7-53c-2.7-7-4.9-11.4-6.5-13.2c-1-1.2-2.3-2-3.8-2.6
			c-1.5-0.5-3.3-0.8-5.5-0.8V228.2z"/>
		<path id="XMLID_72_" d="M173.8,228.2l0.9,17.1l-1.2,0.1c-0.4-2.9-1.2-5.3-2.2-7.2c-1-1.9-2.5-3.6-4.5-5c-1.6-1.2-3.5-2.1-5.8-2.6
			c-2.2-0.5-5.2-0.8-8.8-0.8h-11.9V261h3.1c3.1,0,5.5-0.2,7.1-0.6c1.6-0.4,2.9-1.2,3.9-2.2c1-1,1.7-2.2,2.2-3.6
			c0.5-1.4,0.9-3.4,1.2-6l1.2,0.1l-0.2,27.8h-1.2c-0.3-2.7-0.8-4.8-1.4-6.4c-0.6-1.6-1.4-3-2.5-4.2c-1-1.1-2.4-1.9-4-2.4
			c-1.7-0.5-3.8-0.8-6.3-0.8h-3v11.9c0,4.7,0.1,8.2,0.4,10.4c0.2,2.2,0.7,4,1.4,5.4c1.2,2.5,3,4.3,5.4,5.5c2.4,1.2,5.6,1.7,9.5,1.7
			c4.2,0,7.6-0.5,10.4-1.6c2.8-1.1,5.1-2.7,6.8-4.9c1.2-1.5,2.3-3.2,3-5.1s1.5-4.4,2.2-7.5l1.2,0.1l-0.7,20.7h-61.9v-1.2
			c2-0.1,3.6-0.4,4.8-0.8c1.2-0.4,2.3-1.2,3.3-2.2c1.1-1.1,1.8-2.5,2.2-4.2c0.4-1.7,0.6-4.3,0.6-7.9v-38.2c0-3.5-0.2-6.1-0.6-7.9
			c-0.4-1.7-1.1-3.1-2.2-4.2c-0.9-1-2-1.7-3.2-2.2c-1.2-0.4-2.8-0.7-4.9-0.8v-1.2H173.8z"/>
		<path id="XMLID_74_" d="M267.3,228.2l0.6,22.6l-1.2,0.1c-2.4-7.7-5.4-13.4-9.2-17.1c-3.7-3.8-8.2-5.6-13.5-5.6
			c-4.1,0-7.7,0.8-10.6,2.5s-5.7,4.4-8.3,8.2c-5.2,7.7-7.8,16.5-7.8,26.5c0,4.7,0.6,9.2,1.9,13.4s3.1,7.9,5.4,11.1
			c4.6,6.2,10.3,9.3,17,9.3c2.6,0,5.1-0.6,7.4-1.7c2.3-1.1,4.2-2.6,5.7-4.6c2-2.7,3.1-5.9,3.1-9.6c0-3.4-0.9-5.9-2.8-7.4
			c-1.9-1.5-4.9-2.3-9.2-2.3v-1.2H279v1.2c-3,0.3-5.2,0.7-6.4,1.3c-1.2,0.6-2.1,1.5-2.7,2.9c-0.7,1.5-1,4.5-1,9.1
			c0,1.2,0.1,3.2,0.2,5.8l0.1,1.2c-1.3-0.5-2.3-0.7-2.9-0.7c-0.8,0-1.7,0.4-2.9,1.2c-3,2.1-6.5,3.7-10.5,4.8
			c-4,1.1-8.2,1.7-12.6,1.7c-6.1,0-11.6-1-16.5-3.1c-4.9-2.1-8.9-5.1-11.9-8.9c-2.3-2.9-4-6.4-5.3-10.4c-1.2-4-1.8-8.3-1.8-12.8
			c0-6.2,1.1-12,3.3-17.3c2.2-5.3,5.3-9.7,9.3-13.2c3.3-2.8,7.1-5,11.4-6.5c4.3-1.5,8.8-2.3,13.6-2.3c2.8,0,5.3,0.3,7.7,0.8
			c2.4,0.5,4.9,1.4,7.5,2.5l3.1,1.4c0.8,0.3,1.5,0.5,2.1,0.5c1.4,0,2.4-1.1,3.2-3.4H267.3z"/>
		<path id="XMLID_76_" d="M368,299.1h-34.1v-1.2c3.1-0.3,5.2-0.8,6.4-1.6c2.1-1.3,3.2-3.2,3.2-5.6c0-1.4-0.5-3.3-1.5-5.7l-0.9-2.2
			l-5-12.2h-22.8l-2.7,7.2l-1.3,3.2c-1.6,3.8-2.3,6.8-2.3,9c0,1.3,0.3,2.5,0.9,3.6c0.6,1.1,1.3,2,2.3,2.7c1.3,0.9,3.1,1.5,5.2,1.7
			v1.2h-23.2v-1.2c1.8-0.1,3.4-0.6,4.8-1.3c1.4-0.8,2.7-2.1,4-3.8c1.1-1.4,2.2-3.2,3.2-5.5c1.1-2.2,2.4-5.6,4.2-10l19-48.9h3
			l22.6,54.5c1.7,4.1,3,7.1,4,8.8c1,1.8,2.1,3.1,3.3,4c0.8,0.6,1.8,1.1,2.9,1.4c1.1,0.3,2.7,0.6,4.8,0.9V299.1z M335.4,268.5
			l-10.9-26.9l-10.3,26.9H335.4z"/>
		<path id="XMLID_79_" d="M396.1,237.6v45.1c0,3.6,0.2,6.2,0.6,7.9c0.4,1.7,1.1,3.1,2.2,4.2c1,1,2.1,1.7,3.3,2.2
			c1.2,0.5,2.8,0.7,4.8,0.8v1.2h-23.9v-1.2c2-0.1,3.6-0.4,4.8-0.8c1.2-0.4,2.3-1.2,3.3-2.2c1.1-1.1,1.8-2.5,2.2-4.2
			c0.4-1.7,0.6-4.3,0.6-7.9v-38.3c0-3.5-0.2-6.1-0.6-7.8c-0.4-1.7-1.1-3.1-2.2-4.2c-0.9-1-2-1.7-3.2-2.2c-1.2-0.4-2.8-0.7-4.9-0.8
			v-1.2h20l42.1,53.8v-37.5c0-3.6-0.2-6.2-0.6-7.9c-0.4-1.7-1.1-3.1-2.2-4.2c-1-1-2.1-1.7-3.3-2.2c-1.2-0.4-2.8-0.7-4.8-0.8v-1.2
			h23.9v1.2c-3.5,0-6.2,1-8.1,3c-1.1,1.1-1.8,2.5-2.2,4.2c-0.4,1.7-0.6,4.3-0.6,7.8v54.6H445L396.1,237.6z"/>
	</g>
	<g id="XMLID_48_">
		<path id="XMLID_51_" d="M116,351.5v11.7c0,2,0.1,3.5,0.3,4.4c0.2,1,0.6,1.7,1.2,2.4c0.5,0.6,1.2,1,1.9,1.2s1.6,0.4,2.7,0.5v0.7
			h-18.8v-0.7c0.9,0,1.8-0.2,2.7-0.5s1.5-0.7,2-1.2c0.5-0.6,0.9-1.4,1.2-2.5c0.2-1.1,0.4-2.5,0.4-4.4v-21.6c0-1.3-0.1-2.6-0.2-3.9
			c-0.2-1.7-1-3-2.5-3.8c-0.8-0.5-2-0.7-3.4-0.8v-0.7h30.7l0.9,9.5l-0.7,0.1c-0.5-1.5-0.9-2.6-1.4-3.3c-0.9-1.7-2.2-3-3.9-4
			c-1-0.5-2.1-0.9-3.3-1.1c-1.3-0.2-3-0.3-5.2-0.3H116v17.3h1.2c3.5,0,6-0.8,7.5-2.3c0.7-0.7,1.2-1.5,1.6-2.4
			c0.4-0.9,0.6-2.1,0.7-3.6l0.7,0l-0.2,17.8h-0.7c-0.2-2-0.6-3.5-1.1-4.6c-0.5-1.1-1.3-2-2.4-2.6c-0.8-0.5-1.7-0.8-2.9-1.1
			C119.3,351.7,117.8,351.5,116,351.5z"/>
		<path id="XMLID_53_" d="M149.9,351.6c0.7-1.2,1.5-2.2,2.4-2.8c1.6-1.2,3.5-1.7,5.6-1.7c1.3,0,2.2,0.3,2.9,0.9
			c0.6,0.5,0.9,1.1,0.9,1.9c0,0.5-0.2,1-0.5,1.3c-0.4,0.4-0.8,0.5-1.4,0.5c-0.7,0-1.2-0.3-1.7-0.8l-0.9-1c-0.7-0.8-1.6-1.1-2.6-1.1
			c-1.3,0-2.4,0.9-3.1,2.6c-0.7,1.7-1.1,4.1-1.1,7.2v5.5l0,2.2c0,1.3,0.1,2.3,0.2,2.9c0.2,0.6,0.5,1.1,0.9,1.5
			c0.5,0.5,1.6,0.9,3,1.2v0.6h-13v-0.6c1.2-0.2,2-0.4,2.5-0.7c0.5-0.3,0.9-0.8,1.2-1.4c0.2-0.4,0.4-1.1,0.5-2
			c0.1-0.9,0.1-2.2,0.1-3.9v-7.2c0-2,0-3.4-0.1-4.2s-0.3-1.5-0.6-2c-0.3-0.5-0.7-0.9-1.2-1.2c-0.5-0.2-1.1-0.4-2-0.5v-0.6l7.6-1.1
			C149.7,348.8,149.9,350.3,149.9,351.6z"/>
		<path id="XMLID_55_" d="M176.3,348.1l8.5-1.1V364l0,2.2c0,1.3,0.1,2.3,0.2,2.9c0.2,0.6,0.5,1.1,0.9,1.5c0.5,0.5,1.6,0.9,3,1.2v0.6
			h-13v-0.6c1.2-0.2,2-0.4,2.5-0.7c0.5-0.3,0.9-0.8,1.2-1.4c0.2-0.4,0.4-1.1,0.5-2c0.1-0.9,0.1-2.2,0.1-3.9v-7.2c0-2,0-3.4-0.1-4.2
			s-0.3-1.5-0.6-2c-0.3-0.5-0.7-0.9-1.2-1.2c-0.5-0.2-1.1-0.4-2-0.5V348.1z M182.4,336.5c-0.8,0-1.4-0.2-1.9-0.7
			c-0.5-0.5-0.8-1.1-0.8-1.9c0-0.7,0.3-1.3,0.8-1.8c0.5-0.5,1.1-0.7,1.9-0.7c0.7,0,1.4,0.2,1.9,0.7c0.5,0.5,0.8,1.1,0.8,1.8
			c0,0.7-0.3,1.4-0.8,1.9C183.8,336.3,183.2,336.5,182.4,336.5z"/>
		<path id="XMLID_58_" d="M207.3,356.5c-0.1,1-0.1,1.7-0.1,2.1c0,1.7,0.2,3.4,0.7,5c0.5,1.6,1.2,3,2,4.1c0.9,1.1,2,2,3.3,2.6
			c1.3,0.6,2.7,0.9,4.1,0.9c1.1,0,2.1-0.2,3-0.5c0.9-0.4,1.7-0.8,2.4-1.5c0.7-0.7,1.3-1.8,1.8-3.3l0.6,0.2c-0.5,2.3-1.6,4-3.3,5.2
			s-3.9,1.7-6.7,1.7c-2.4,0-4.5-0.4-6.2-1.1s-3.2-1.9-4.4-3.5c-1.7-2.2-2.5-4.9-2.5-8.2c0-4.4,1.6-7.9,4.7-10.4
			c2.3-1.8,4.9-2.7,7.8-2.7c1.6,0,3,0.3,4.3,0.8c1.3,0.6,2.5,1.4,3.4,2.4c1.4,1.6,2.1,3.7,2.1,6.2H207.3z M220.1,355.4
			c-0.1-2-0.5-3.5-1.1-4.5c-0.5-1-1.2-1.7-2.1-2.3c-0.9-0.6-1.8-0.8-2.8-0.8c-1.7,0-3.1,0.7-4.4,2.2c-1.3,1.5-2,3.3-2.2,5.5H220.1z"
			/>
		<path id="XMLID_61_" d="M250.1,347.1c0.3,1.1,0.4,2.2,0.4,3.2v0.5c2.4-2.4,5.3-3.7,8.7-3.7c2.5,0,4.5,0.6,6.1,1.8
			c1.5,1.2,2.3,2.8,2.3,4.9v12.4c0,1.3,0.1,2.3,0.2,2.9s0.5,1.1,0.9,1.5c0.5,0.5,1.6,0.9,3,1.2v0.6h-13v-0.6c1.2-0.2,2-0.4,2.5-0.7
			c0.5-0.3,0.9-0.8,1.2-1.5c0.2-0.4,0.4-1.1,0.5-2c0.1-0.9,0.1-2.2,0.1-3.9v-6.2c0-2.1-0.1-3.7-0.2-4.7c-0.1-1-0.4-1.8-0.8-2.4
			c-0.4-0.7-1.1-1.2-1.9-1.6c-0.8-0.4-1.8-0.6-2.8-0.6c-1.1,0-2.1,0.2-3.1,0.6c-0.9,0.4-1.7,1-2.2,1.8c-0.6,0.8-1,1.7-1.2,2.7
			c-0.2,1-0.3,2.6-0.3,4.9v5.8l0,2.2c0,1.3,0.1,2.3,0.2,2.9c0.2,0.6,0.5,1.1,0.9,1.5c0.5,0.5,1.6,0.9,3,1.2v0.6h-13v-0.6
			c1.2-0.2,2-0.4,2.5-0.7c0.5-0.3,0.9-0.8,1.2-1.4c0.2-0.4,0.4-1.1,0.5-2c0.1-0.9,0.1-2.2,0.1-3.9v-7.2c0-2,0-3.4-0.1-4.2
			s-0.3-1.5-0.6-2c-0.3-0.5-0.7-0.9-1.2-1.2c-0.5-0.2-1.1-0.4-2-0.5v-0.6L250.1,347.1z"/>
		<path id="XMLID_63_" d="M309.4,373.5c-0.2-1-0.3-2-0.3-3.1c-1.4,0.9-2.8,1.6-4.1,2c-1.3,0.4-2.7,0.6-4.1,0.6c-3,0-5.5-0.9-7.6-2.7
			c-1.3-1.1-2.4-2.6-3.1-4.3c-0.7-1.7-1.1-3.6-1.1-5.6c0-2.2,0.4-4.1,1.2-6c0.8-1.8,1.9-3.4,3.3-4.6c2.2-1.9,4.9-2.8,7.9-2.8
			c1.5,0,2.8,0.2,3.8,0.6c1.1,0.4,2.3,1.2,3.7,2.4v-10.9c0-2.1-0.4-3.7-1.1-4.6s-1.9-1.4-3.5-1.4v-0.7l9-1.1v34
			c0,2.2,0.4,3.8,1.1,4.7s1.9,1.4,3.5,1.4v0.7L309.4,373.5z M309,359.8c0-2.7-0.1-4.8-0.4-6.1c-0.2-1.4-0.7-2.5-1.3-3.3
			c-0.5-0.7-1.2-1.3-2.1-1.8c-0.9-0.5-1.8-0.7-2.7-0.7c-2.1,0-3.9,1-5.4,2.9c-0.9,1.2-1.6,2.6-2.2,4.2c-0.5,1.6-0.8,3.3-0.8,5
			c0,1.7,0.2,3.3,0.7,4.9c0.5,1.6,1.2,3,2,4.2c1.5,2,3.3,3,5.4,3c1,0,2-0.3,2.9-0.8c0.9-0.5,1.7-1.2,2.2-2.1c0.6-0.9,1-2.1,1.2-3.5
			C308.9,364.4,309,362.4,309,359.8z"/>
		<path id="XMLID_66_" d="M328.9,332.3l8.5-1.1V364l0,2.2c0,1.3,0.1,2.3,0.2,2.9c0.2,0.6,0.5,1.1,0.9,1.5c0.5,0.5,1.6,0.9,3,1.2v0.6
			h-13v-0.6c1.2-0.2,2-0.4,2.5-0.7c0.5-0.3,0.9-0.8,1.2-1.5c0.2-0.5,0.4-1.1,0.5-2c0.1-0.9,0.1-2.2,0.1-3.9v-23c0-2,0-3.4-0.1-4.2
			s-0.3-1.5-0.6-2c-0.3-0.5-0.7-0.9-1.2-1.2c-0.5-0.2-1.1-0.4-2-0.4V332.3z"/>
		<path id="XMLID_68_" d="M352.8,347.5h11.4v0.6c-0.8,0.1-1.4,0.3-1.7,0.5c-0.8,0.4-1.1,1.1-1.1,2c0,0.8,0.4,2.2,1.2,4.2l4.9,12.6
			l4.3-10.6c1.1-2.6,1.6-4.5,1.6-5.6c0-0.9-0.2-1.6-0.7-2.1c-0.5-0.5-1.2-0.8-2.1-1v-0.6h8.4v0.6c-0.8,0.2-1.5,0.5-1.9,0.7
			c-0.4,0.3-0.8,0.7-1.2,1.2c-0.6,0.9-1.5,2.8-2.7,5.8l-8.5,20.7c-1,2.5-1.8,4.1-2.5,4.8c-1.1,1.2-2.4,1.9-4,1.9
			c-1,0-1.9-0.2-2.5-0.6c-0.6-0.4-1-0.9-1-1.6c0-0.5,0.2-0.9,0.6-1.2c0.4-0.3,0.9-0.5,1.5-0.5c0.5,0,1.1,0.1,1.8,0.4
			c0.6,0.3,1.1,0.4,1.2,0.5s0.4,0.1,0.7,0.1c1.2,0,2.2-0.9,3-2.7l0.9-2.2c0.4-0.9,0.6-1.7,0.6-2.2c0-0.7-0.4-2-1.1-3.8l-6.1-14.6
			l-0.9-2.1c-0.5-1.3-0.9-2.1-1.2-2.7c-0.3-0.5-0.6-0.9-0.9-1.1c-0.5-0.4-1.1-0.6-1.8-0.7V347.5z"/>
	</g>
	<g id="XMLID_47_">
		<path id="XMLID_82_" d="M359.7,37.1c-55.5,3.4-84.6,32.6-93.5,46.7c-8.5,13.7-22.1,40.4-21.9,64h-0.1c0.2-23.6-13.3-50.2-21.9-64
			c-8.8-14.2-37.9-43.3-93.5-46.7s-70.1,9.2-70.1,9.2s13.4,3.4,23.4,17.2s17.6,56.4,57.5,77.8c31.4,16.9,78.9,15.2,78.9,15.2
			s1.2-14.6-16.9-41.7c-24.4-36.8-60.1-51.3-60.1-51.3c22.6,6.1,48.3,16.9,74.7,55.9c20.2,29.9,22.4,66.9,22.6,70.2l0,0.3h10.9
			c0,0,1.4-39.2,22.6-70.5c26.4-39.1,52.1-49.8,74.7-55.9c0,0-35.7,14.5-60.1,51.3c-18,27.2-16.9,41.7-16.9,41.7s47.5,1.7,78.9-15.2
			c39.8-21.4,47.5-64,57.5-77.8s23.4-17.2,23.4-17.2S415.2,33.7,359.7,37.1z"/>
	</g>
</g>
</svg>
